<?xml version="1.0" encoding="UTF-8" standalone="no"?>
<svg
   width="256"
   height="194"
   viewBox="0 0 256 194"
   fill="none"
   version="1.1"
   id="svg199"
   sodipodi:docname="icpc foundation.svg"
   inkscape:version="1.1.2 (0a00cf5339, 2022-02-04)"
   xmlns:inkscape="http://www.inkscape.org/namespaces/inkscape"
   xmlns:sodipodi="http://sodipodi.sourceforge.net/DTD/sodipodi-0.dtd"
   xmlns="http://www.w3.org/2000/svg"
   xmlns:svg="http://www.w3.org/2000/svg">
  <defs
     id="defs203" />
  <sodipodi:namedview
     id="namedview201"
     pagecolor="#ffffff"
     bordercolor="#666666"
     borderopacity="1.0"
     inkscape:pageshadow="2"
     inkscape:pageopacity="0.0"
     inkscape:pagecheckerboard="0"
     showgrid="false"
     inkscape:zoom="3.7731959"
     inkscape:cx="127.87568"
     inkscape:cy="97"
     inkscape:window-width="1642"
     inkscape:window-height="1001"
     inkscape:window-x="62"
     inkscape:window-y="27"
     inkscape:window-maximized="1"
     inkscape:current-layer="svg199" />
  <path
     d="M42.5239 143.337C41.7569 143.193 40.9675 143.22 40.2119 143.415C39.4564 143.611 38.7532 143.971 38.1525 144.469C37.5518 144.967 37.0683 145.592 36.7364 146.298C36.4046 147.005 36.2325 147.775 36.2325 148.556C36.2325 149.336 36.4046 150.107 36.7364 150.814C37.0683 151.52 37.5518 152.145 38.1525 152.643C38.7532 153.141 39.4564 153.501 40.2119 153.697C40.9675 153.892 41.7569 153.919 42.5239 153.775C43.2911 153.919 44.0807 153.893 44.8365 153.697C45.5923 153.502 46.2957 153.142 46.8966 152.644C47.4975 152.145 47.9812 151.521 48.3132 150.814C48.6451 150.108 48.8173 149.337 48.8173 148.556C48.8173 147.775 48.6451 147.004 48.3132 146.298C47.9812 145.591 47.4975 144.966 46.8966 144.468C46.2957 143.97 45.5923 143.61 44.8365 143.415C44.0807 143.219 43.2911 143.193 42.5239 143.337ZM42.5239 151.766C40.1615 151.766 38.2412 150.325 38.2412 148.556C38.2412 146.787 40.1615 145.342 42.5239 145.342C44.8864 145.342 46.8096 146.784 46.8096 148.556C46.8096 150.328 44.8864 151.766 42.5239 151.766Z"
     fill="#4C83C3"
     id="path155" />
  <path
     d="M33.9661 152.49C33.7423 151.241 33.0357 150.132 31.9993 149.401C30.963 148.67 29.6804 148.377 28.4295 148.585C27.1626 148.633 25.9654 149.178 25.0974 150.102C24.2294 151.026 23.7606 152.255 23.7925 153.522C23.9086 154.123 24.1451 154.693 24.4877 155.199C24.8303 155.706 25.272 156.137 25.786 156.468C26.3 156.799 26.8757 157.022 27.4785 157.125C28.0812 157.227 28.6983 157.206 29.2927 157.063C32.2397 156.766 34.2054 154.84 33.9661 152.49ZM29.108 155.255C27.5542 155.412 25.8157 154.876 25.6582 153.335C25.7394 152.58 26.0773 151.877 26.6152 151.342C27.1531 150.807 27.8584 150.473 28.6131 150.396C29.3677 150.319 30.1259 150.504 30.7607 150.919C31.3956 151.334 31.8685 151.955 32.1004 152.677C32.2579 154.225 30.6587 155.097 29.108 155.255Z"
     fill="#4C83C3"
     id="path157" />
  <path
     d="M15.6538 152.498C12.8915 152.498 11.1772 153.798 11.1772 155.888C11.1772 157.977 12.8915 159.277 15.6538 159.277C18.416 159.277 20.1273 157.98 20.1273 155.888C20.1273 153.795 18.413 152.498 15.6538 152.498ZM15.6507 157.478C14.412 157.478 12.9309 157.205 12.9309 155.888C12.9309 154.576 14.412 154.301 15.6507 154.301C16.8956 154.301 18.3766 154.576 18.3766 155.888C18.3766 157.205 16.8956 157.478 15.6507 157.478Z"
     fill="#4C83C3"
     id="path159" />
  <path
     d="M81.0612 114.594C80.7559 112.633 79.9941 110.771 78.8372 109.159C77.6803 107.546 76.1607 106.228 74.4009 105.311C74.3433 105.272 74.2949 105.235 74.2404 105.196L74.2161 105.178L74.0041 105.041V108.046C74.101 108.107 74.2494 108.21 74.4009 108.319C75.4789 109.013 76.4037 109.92 77.1188 110.985C77.8338 112.049 78.324 113.249 78.5594 114.509C78.5504 116.066 78.168 117.598 77.4444 118.976C76.7208 120.354 75.6771 121.538 74.4009 122.43C74.3645 122.466 74.3312 122.499 74.2919 122.533L74.0041 122.787L73.8042 122.96L74.0041 123.038L74.4009 123.196L74.4039 123.199C74.4493 123.217 78.8047 125.056 76.73 131.498C75.6204 134.57 73.5492 137.202 70.8242 139.004C68.0991 140.805 64.8657 141.679 61.6043 141.496H61.5013C55.3848 141.329 49.4222 139.541 44.2222 136.317L43.9526 136.168L43.7376 136.389C41.0199 139.166 37.396 140.876 33.5245 141.208C33.4549 141.223 28.6967 141.571 25.6012 135.326L25.4438 135.011L25.1136 135.126C25.0742 135.138 21.5003 136.323 19.5982 134.533C19.4703 134.412 19.3528 134.282 19.2469 134.142H18.7199V134.136H16.8875V134.142H16.4765L16.5037 134.242L16.5552 134.375C16.5734 134.424 16.5916 134.469 16.6188 134.533C17.0186 135.49 18.7208 138.537 24.1695 137.849C25.1313 139.503 26.4895 140.892 28.1216 141.891C29.7538 142.89 31.6087 143.467 33.5194 143.57H33.5224C37.5402 143.501 41.3869 141.932 44.3079 139.173C49.429 141.878 55.0561 143.491 60.8329 143.91C61.4704 143.91 62.1074 143.874 62.741 143.804C66.1302 143.719 69.4262 142.676 72.2477 140.797C75.0692 138.917 77.3008 136.277 78.6845 133.182C79.4978 131.504 79.8136 129.629 79.5947 127.778C79.3757 125.927 78.631 124.177 77.4487 122.736C78.5826 121.703 79.4893 120.446 80.1114 119.045C80.7334 117.643 81.0562 116.128 81.0612 114.594Z"
     fill="#4C83C3"
     id="path161" />
  <path
     d="M3.5 155C0.565117 155 0 156.691 0 157.5C0 158.309 0.565117 160 3.5 160C5.71706 160 7 159.126 7 157.5C7 155.874 5.71706 155 3.5 155ZM3.5 158.392C1.8584 158.392 1.60828 157.848 1.60828 157.5C1.60828 157.152 1.8584 156.608 3.5 156.608C3.70596 156.608 5.5 156.608 5.5 157.5C5.5 158.392 3.70596 158.392 3.5 158.392Z"
     fill="#4C83C3"
     id="path163" />
  <path
     d="M73.7673 108.124L73.4553 107.951C69.285 104.145 63.9645 101.837 58.3356 101.394C57.5232 101.393 56.7123 101.465 55.9126 101.609C54.2121 101.941 52.594 102.605 51.1515 103.565C49.709 104.524 48.4706 105.76 47.5078 107.2L46.6052 108.727L46.3387 106.973C45.639 102.406 43.3432 102.103 43.2978 102.097C43.1323 102.063 42.9638 102.047 42.795 102.048C40.2963 102.048 36.9858 105.368 36.9495 105.404L36.1711 106.192L35.8894 105.125C34.1297 98.5833 29.7016 98.4471 29.535 98.444C26.4448 98.4408 23.4671 99.6035 21.1968 101.7C20.3506 102.774 19.9404 104.128 20.0482 105.491C20.156 106.854 20.7738 108.126 21.7783 109.054L22.4053 109.711L21.5693 110.075C13.1615 113.724 13.643 116.811 13.6521 116.862C13.9429 119.079 18.8344 121.329 21.851 122.223L22.7112 122.483L22.1812 123.207C17.3533 129.783 18.798 133.036 19.1433 133.617L19.2493 133.902H63.6087C66.3077 133.893 68.8931 132.815 70.7976 130.902C72.7021 128.99 73.7701 126.4 73.7673 123.701V108.124Z"
     fill="#4C83C3"
     id="path165" />
  <path
     d="M63.6103 75.3102H10.1585C7.46333 75.3144 4.87993 76.3878 2.97536 78.2948C1.0708 80.2018 0.000718867 82.7866 0 85.4818V123.732C0.000797891 126.428 1.07084 129.012 2.97532 130.92C4.87981 132.827 7.46316 133.901 10.1585 133.906H16.1191L16.0767 133.806C15.719 132.13 15.7067 130.399 16.0405 128.719C16.3743 127.038 17.0472 125.444 18.0182 124.032C13.2994 122.078 10.8491 119.743 10.734 117.096C10.5583 113.007 15.9738 109.676 17.9546 108.597C17.4337 107.605 17.1254 106.515 17.0493 105.397C16.9731 104.279 17.1309 103.157 17.5124 102.104C18.6391 99.7303 20.6488 97.8912 23.1126 96.979C24.8959 96.1073 26.8465 95.6311 28.8309 95.5827C30.0255 95.5764 31.2098 95.8038 32.317 96.2521C34.5896 97.2478 36.4392 99.0116 37.5417 101.234C39.095 100.093 40.9452 99.4253 42.8693 99.3112C43.4407 99.3107 44.0087 99.3986 44.5533 99.5716C45.995 100.09 47.1838 101.14 47.8758 102.507C50.6385 100.012 54.2395 98.6492 57.9617 98.6903C63.6777 99.0865 69.1545 101.139 73.7234 104.596L73.7688 104.63V85.4818C73.7672 82.7869 72.6969 80.2028 70.7925 78.2961C68.8881 76.3894 66.3052 75.315 63.6103 75.3102Z"
     fill="#4C83C3"
     id="path167" />
  <path
     d="M165.508 56.767L148.697 65.1709L149.771 67.3195L166.582 58.9156L165.508 56.767Z"
     fill="#FDBA12"
     id="path169" />
  <path
     d="M157.943 44.8316L142.856 58.2385L144.452 60.0348L159.539 46.6279L157.943 44.8316Z"
     fill="#FDBA12"
     id="path171" />
  <path
     d="M143.409 35.0902L135.443 53.527L137.649 54.4805L145.615 36.0437L143.409 35.0902Z"
     fill="#FDBA12"
     id="path173" />
  <path
     d="M128.649 31.3526H126.244V51.9756H128.649V31.3526Z"
     fill="#FDBA12"
     id="path175" />
  <path
     d="M111.488 35.0899L109.277 36.0439L117.085 54.1136L117.249 54.4801L119.454 53.526L111.645 35.4533L111.488 35.0899Z"
     fill="#FDBA12"
     id="path177" />
  <path
     d="M95.3568 46.6293L110.443 60.0347L112.042 58.2386L96.9499 44.8302L95.3568 46.6293Z"
     fill="#FDBA12"
     id="path179" />
  <path
     d="M89.3802 56.7752L88.3084 58.925L105.128 67.3111L106.2 65.1614L89.3802 56.7752Z"
     fill="#FDBA12"
     id="path181" />
  <path
     d="M154.172 75.3125H150.52L150.504 75.7063C150.486 78.7236 149.87 81.7073 148.691 84.485C147.513 87.2627 145.795 89.7792 143.638 91.889C141.858 93.7017 139.694 95.0917 137.305 95.9567L135.6 107.769H118.975L117.518 96.0506C105.012 91.256 104.537 78.1172 104.397 75.5276L104.385 75.3125H100.72C98.0214 75.3222 95.4362 76.4018 93.5319 78.3146C91.6276 80.2274 90.5596 82.8174 90.562 85.5165V123.876C90.5641 126.319 91.4451 128.679 93.0438 130.526C94.6426 132.373 96.8525 133.583 99.2697 133.934H155.626C158.043 133.582 160.252 132.372 161.851 130.525C163.449 128.679 164.329 126.318 164.331 123.876V85.5165C164.334 82.8172 163.266 80.227 161.361 78.3141C159.457 76.4011 156.872 75.3217 154.172 75.3125ZM119.166 110.558H135.694V112.997H119.166V110.558ZM119.166 115.229H135.694V117.664H119.166V115.229ZM130.56 127.002H124.051V124.563H130.56V127.002ZM135.739 122.334H119.211V119.896H135.739V122.334Z"
     fill="#FDBA12"
     id="path183" />
  <path
     d="M118.918 87.303L128.392 83.4262L120.254 80.9426L125.972 75.7028L126.354 75.3121H107.5V75.7028C107.63 78.0501 108.006 89.6715 119.672 94.039L119.897 94.1208L121.275 105H126.199V92.1454L128.81 90.001L118.918 87.303Z"
     fill="#FDBA12"
     id="path185" />
  <path
     d="M129.82 75.3107L129.487 75.7044L125.256 79.7508L136.154 82.8069L126.41 86.8109L134.061 88.9553L128.739 93.2955V105.002H133.228L134.782 94.0467L134.988 93.9588C138.623 92.4642 141.742 89.9405 143.964 86.6977C146.185 83.4549 147.41 79.6341 147.49 75.7044V75.3107H129.82Z"
     fill="#FDBA12"
     id="path187" />
  <path
     d="M244.867 75.3118H224.532C233.494 81.9993 238.558 88.9473 239.591 95.968C239.927 98.9877 239.637 102.044 238.738 104.946C237.839 107.849 236.351 110.534 234.367 112.835L234.194 113.059C226.398 123 210.488 130.511 204.006 133.276C203.273 133.501 202.536 133.72 201.795 133.934H244.867C247.56 133.925 250.139 132.849 252.039 130.941C253.939 129.033 255.004 126.45 255.002 123.757V85.4885C255.004 82.7959 253.939 80.2123 252.039 78.3044C250.139 76.3965 247.56 75.3203 244.867 75.3118Z"
     fill="#B22C1B"
     id="path189" />
  <path
     d="M219.541 75.7355L219.072 75.375H191.134C188.441 75.3843 185.862 76.4612 183.962 78.3696C182.062 80.2779 180.997 82.8619 181 85.5548V123.817C180.996 126.511 182.061 129.095 183.961 131.004C185.861 132.913 188.441 133.991 191.134 134H191.283L192.44 133.615C218.436 125.017 235.526 111.919 236.365 99.5378C237.222 87.0744 221.31 76.8652 219.541 75.7355Z"
     fill="#B22C1B"
     id="path191" />
  <path
     d="M241.98 27.6285C242.257 26.0249 242.398 24.4007 242.401 22.7733C242.497 19.1182 241.642 15.5008 239.919 12.2757C238.196 9.05067 235.665 6.32868 232.573 4.37657C228.199 1.59254 223.137 0.0783679 217.953 0.00296078C212.769 -0.0724464 207.665 1.29387 203.212 3.94951C199.98 6.06361 197.358 8.98793 195.608 12.431C193.858 15.8741 193.041 19.7157 193.238 23.5729C193.248 25.4681 193.404 27.3596 193.705 29.2307C195.117 38.3698 200.038 46.5976 207.422 52.1646C203.545 51.1136 198.481 50.6108 196.288 54.1666C196.02 54.5053 195.825 54.8957 195.715 55.3134C195.605 55.7311 195.582 56.167 195.648 56.5938C195.715 57.0206 195.868 57.4292 196.1 57.7938C196.331 58.1584 196.636 58.4713 196.994 58.7128C199.814 60.736 206.668 60.1999 210.808 57.8314L207.967 64.4493H227.036L223.223 56.8198C227.836 58.7491 233.185 60.4907 236.074 58.7279C236.661 58.3621 237.143 57.8514 237.475 57.2451C237.807 56.6388 237.978 55.9573 237.97 55.266C238.057 54.5304 237.946 53.7849 237.648 53.1066C237.351 52.4282 236.877 51.8416 236.277 51.4074C234.095 50.2734 231.566 50.001 229.193 50.6441C229.529 50.3685 229.85 50.0929 230.171 49.8112C236.544 43.9972 240.715 36.1619 241.98 27.6285ZM198.399 56.7592C198.124 56.5624 197.784 56.317 198.336 55.4266C199.986 52.737 205.508 53.7698 209.996 55.5538C208.269 56.5895 206.335 57.2341 204.331 57.4424C202.328 57.6507 200.303 57.4175 198.399 56.7592ZM234.893 53.37C235.161 53.5705 235.367 53.8426 235.487 54.155C235.607 54.4675 235.636 54.8075 235.571 55.1358C235.589 55.4353 235.529 55.7343 235.398 56.0042C235.267 56.2741 235.069 56.5059 234.823 56.6775C233.733 57.3438 230.943 57.474 223.88 54.4937C228.187 53.0581 233.076 52.0889 234.893 53.37ZM220.852 53.0248C220.564 53.1399 220.346 53.2247 220.243 53.2671L219.404 53.5578L219.001 53.7547L219.016 53.7789L217.626 54.3544L219.779 55.3175L223.147 62.0475H211.617L214.936 54.3029L213.728 53.5851C209.088 51.09 205.084 47.5621 202.025 43.2737C198.965 38.9852 196.932 34.0511 196.082 28.8521C195.802 27.1174 195.657 25.3635 195.649 23.6063C195.459 20.1481 196.177 16.7005 197.733 13.6062C199.289 10.512 201.628 7.8792 204.517 5.96971C208.575 3.55694 213.222 2.3179 217.942 2.39063C222.661 2.46336 227.268 3.84499 231.249 6.38162C234.005 8.12784 236.259 10.5596 237.792 13.4387C239.326 16.3179 240.085 19.5459 239.996 22.8067C239.991 24.2889 239.862 25.7681 239.609 27.2287C238.875 32.7493 236.775 37.9996 233.499 42.5039C230.224 47.0083 225.877 50.6244 220.852 53.0248Z"
     fill="#B22C1B"
     id="path193" />
  <path
     d="M223.512 74.8385L223.349 74.7234C223.346 74.7204 223.319 74.7083 223.273 74.678C221.467 73.5532 219.918 72.0614 218.726 70.2994C217.533 68.5374 216.725 66.5444 216.352 64.4498H213.762C214.174 68.4073 216.07 72.0617 219.068 74.678C219.132 74.7325 219.202 74.784 219.271 74.8385C219.371 74.9172 219.468 74.999 219.568 75.0747H223.436L223.851 75.0717L223.512 74.8385Z"
     fill="#B22C1B"
     id="path195" />
</svg>
